%TF.GenerationSoftware,KiCad,Pcbnew,8.0.2-1*%
%TF.CreationDate,2024-05-11T10:02:21-04:00*%
%TF.ProjectId,Rom 01 IIgs RGBToHDMI,526f6d20-3031-4204-9949-677320524742,rev?*%
%TF.SameCoordinates,Original*%
%TF.FileFunction,Soldermask,Bot*%
%TF.FilePolarity,Negative*%
%FSLAX46Y46*%
G04 Gerber Fmt 4.6, Leading zero omitted, Abs format (unit mm)*
G04 Created by KiCad (PCBNEW 8.0.2-1) date 2024-05-11 10:02:21*
%MOMM*%
%LPD*%
G01*
G04 APERTURE LIST*
%ADD10R,1.524000X1.524000*%
%ADD11C,1.524000*%
%ADD12C,1.100000*%
G04 APERTURE END LIST*
D10*
%TO.C,J1*%
X77470000Y-96520000D03*
D11*
X74930000Y-96520000D03*
X77470000Y-93980000D03*
X74930000Y-93980000D03*
X77470000Y-91440000D03*
X74930000Y-91440000D03*
X77470000Y-88900000D03*
X74930000Y-88900000D03*
X77470000Y-86360000D03*
X74930000Y-86360000D03*
X77470000Y-83820000D03*
X74930000Y-83820000D03*
X77470000Y-81280000D03*
X74930000Y-81280000D03*
X77470000Y-78740000D03*
X74930000Y-78740000D03*
%TD*%
D12*
%TO.C,U2*%
X113030000Y-86360000D03*
X110490000Y-86360000D03*
X113030000Y-83820000D03*
X110490000Y-83820000D03*
X113030000Y-81280000D03*
X110490000Y-81280000D03*
X113030000Y-78740000D03*
X110490000Y-78740000D03*
X113030000Y-76200000D03*
X110490000Y-73660000D03*
X110490000Y-76200000D03*
X107950000Y-73660000D03*
X107950000Y-76200000D03*
X105410000Y-73660000D03*
X105410000Y-76200000D03*
X102870000Y-73660000D03*
X102870000Y-76200000D03*
X100330000Y-73660000D03*
X100330000Y-76200000D03*
X97790000Y-73660000D03*
X97790000Y-76200000D03*
X95250000Y-73660000D03*
X95250000Y-76200000D03*
X92710000Y-73660000D03*
X92710000Y-76200000D03*
X90170000Y-73660000D03*
X87630000Y-76200000D03*
X90170000Y-76200000D03*
X87630000Y-78740000D03*
X90170000Y-78740000D03*
X87630000Y-81280000D03*
X90170000Y-81280000D03*
X87630000Y-83820000D03*
X90170000Y-83820000D03*
X87630000Y-86360000D03*
X90170000Y-86360000D03*
X87630000Y-88900000D03*
X90170000Y-88900000D03*
X87630000Y-91440000D03*
X90170000Y-91440000D03*
X87630000Y-93980000D03*
X90170000Y-93980000D03*
X87630000Y-96520000D03*
X90170000Y-99060000D03*
X90170000Y-96520000D03*
X92710000Y-99060000D03*
X92710000Y-96520000D03*
X95250000Y-99060000D03*
X95250000Y-96520000D03*
X97790000Y-99060000D03*
X97790000Y-96520000D03*
X100330000Y-99060000D03*
X100330000Y-96520000D03*
X102870000Y-99060000D03*
X102870000Y-96520000D03*
X105410000Y-99060000D03*
X105410000Y-96520000D03*
X107950000Y-99060000D03*
X107950000Y-96520000D03*
X110490000Y-99060000D03*
X113030000Y-96520000D03*
X110490000Y-96520000D03*
X113030000Y-93980000D03*
X110490000Y-93980000D03*
X113030000Y-91440000D03*
X110490000Y-91440000D03*
X113030000Y-88900000D03*
X110490000Y-88900000D03*
%TD*%
M02*
