%TF.GenerationSoftware,KiCad,Pcbnew,8.0.2-1*%
%TF.CreationDate,2024-05-11T10:02:11-04:00*%
%TF.ProjectId,Rom 01 IIgs RGBToHDMI,526f6d20-3031-4204-9949-677320524742,rev?*%
%TF.SameCoordinates,Original*%
%TF.FileFunction,Drillmap*%
%TF.FilePolarity,Positive*%
%FSLAX45Y45*%
G04 Gerber Fmt 4.5, Leading zero omitted, Abs format (unit mm)*
G04 Created by KiCad (PCBNEW 8.0.2-1) date 2024-05-11 10:02:11*
%MOMM*%
%LPD*%
G01*
G04 APERTURE LIST*
%ADD10C,0.050000*%
%ADD11C,0.200000*%
G04 APERTURE END LIST*
D10*
X6985000Y-6750000D02*
X15794000Y-6750000D01*
X15794000Y-10800000D01*
X6985000Y-10800000D01*
X6985000Y-6750000D01*
D11*
X7243277Y-11113984D02*
X7243277Y-10913984D01*
X7243277Y-10913984D02*
X7290896Y-10913984D01*
X7290896Y-10913984D02*
X7319467Y-10923508D01*
X7319467Y-10923508D02*
X7338515Y-10942555D01*
X7338515Y-10942555D02*
X7348039Y-10961603D01*
X7348039Y-10961603D02*
X7357562Y-10999698D01*
X7357562Y-10999698D02*
X7357562Y-11028270D01*
X7357562Y-11028270D02*
X7348039Y-11066365D01*
X7348039Y-11066365D02*
X7338515Y-11085412D01*
X7338515Y-11085412D02*
X7319467Y-11104460D01*
X7319467Y-11104460D02*
X7290896Y-11113984D01*
X7290896Y-11113984D02*
X7243277Y-11113984D01*
X7443277Y-11113984D02*
X7443277Y-10980650D01*
X7443277Y-11018746D02*
X7452801Y-10999698D01*
X7452801Y-10999698D02*
X7462324Y-10990174D01*
X7462324Y-10990174D02*
X7481372Y-10980650D01*
X7481372Y-10980650D02*
X7500420Y-10980650D01*
X7567086Y-11113984D02*
X7567086Y-10980650D01*
X7567086Y-10913984D02*
X7557562Y-10923508D01*
X7557562Y-10923508D02*
X7567086Y-10933031D01*
X7567086Y-10933031D02*
X7576610Y-10923508D01*
X7576610Y-10923508D02*
X7567086Y-10913984D01*
X7567086Y-10913984D02*
X7567086Y-10933031D01*
X7690896Y-11113984D02*
X7671848Y-11104460D01*
X7671848Y-11104460D02*
X7662324Y-11085412D01*
X7662324Y-11085412D02*
X7662324Y-10913984D01*
X7795658Y-11113984D02*
X7776610Y-11104460D01*
X7776610Y-11104460D02*
X7767086Y-11085412D01*
X7767086Y-11085412D02*
X7767086Y-10913984D01*
X8024229Y-11113984D02*
X8024229Y-10913984D01*
X8024229Y-10913984D02*
X8090896Y-11056841D01*
X8090896Y-11056841D02*
X8157562Y-10913984D01*
X8157562Y-10913984D02*
X8157562Y-11113984D01*
X8338515Y-11113984D02*
X8338515Y-11009222D01*
X8338515Y-11009222D02*
X8328991Y-10990174D01*
X8328991Y-10990174D02*
X8309943Y-10980650D01*
X8309943Y-10980650D02*
X8271848Y-10980650D01*
X8271848Y-10980650D02*
X8252801Y-10990174D01*
X8338515Y-11104460D02*
X8319467Y-11113984D01*
X8319467Y-11113984D02*
X8271848Y-11113984D01*
X8271848Y-11113984D02*
X8252801Y-11104460D01*
X8252801Y-11104460D02*
X8243277Y-11085412D01*
X8243277Y-11085412D02*
X8243277Y-11066365D01*
X8243277Y-11066365D02*
X8252801Y-11047317D01*
X8252801Y-11047317D02*
X8271848Y-11037793D01*
X8271848Y-11037793D02*
X8319467Y-11037793D01*
X8319467Y-11037793D02*
X8338515Y-11028270D01*
X8433753Y-10980650D02*
X8433753Y-11180650D01*
X8433753Y-10990174D02*
X8452801Y-10980650D01*
X8452801Y-10980650D02*
X8490896Y-10980650D01*
X8490896Y-10980650D02*
X8509944Y-10990174D01*
X8509944Y-10990174D02*
X8519467Y-10999698D01*
X8519467Y-10999698D02*
X8528991Y-11018746D01*
X8528991Y-11018746D02*
X8528991Y-11075889D01*
X8528991Y-11075889D02*
X8519467Y-11094936D01*
X8519467Y-11094936D02*
X8509944Y-11104460D01*
X8509944Y-11104460D02*
X8490896Y-11113984D01*
X8490896Y-11113984D02*
X8452801Y-11113984D01*
X8452801Y-11113984D02*
X8433753Y-11104460D01*
X8614705Y-11094936D02*
X8624229Y-11104460D01*
X8624229Y-11104460D02*
X8614705Y-11113984D01*
X8614705Y-11113984D02*
X8605182Y-11104460D01*
X8605182Y-11104460D02*
X8614705Y-11094936D01*
X8614705Y-11094936D02*
X8614705Y-11113984D01*
X8614705Y-10990174D02*
X8624229Y-10999698D01*
X8624229Y-10999698D02*
X8614705Y-11009222D01*
X8614705Y-11009222D02*
X8605182Y-10999698D01*
X8605182Y-10999698D02*
X8614705Y-10990174D01*
X8614705Y-10990174D02*
X8614705Y-11009222D01*
M02*
