%TF.GenerationSoftware,KiCad,Pcbnew,8.0.2-1*%
%TF.CreationDate,2024-05-11T10:02:21-04:00*%
%TF.ProjectId,Rom 01 IIgs RGBToHDMI,526f6d20-3031-4204-9949-677320524742,rev?*%
%TF.SameCoordinates,Original*%
%TF.FileFunction,Legend,Top*%
%TF.FilePolarity,Positive*%
%FSLAX46Y46*%
G04 Gerber Fmt 4.6, Leading zero omitted, Abs format (unit mm)*
G04 Created by KiCad (PCBNEW 8.0.2-1) date 2024-05-11 10:02:21*
%MOMM*%
%LPD*%
G01*
G04 APERTURE LIST*
%ADD10C,0.100000*%
%ADD11C,0.150000*%
%ADD12C,0.152400*%
G04 APERTURE END LIST*
D10*
X123737419Y-73581904D02*
X124546942Y-73581904D01*
X124546942Y-73581904D02*
X124642180Y-73534285D01*
X124642180Y-73534285D02*
X124689800Y-73486666D01*
X124689800Y-73486666D02*
X124737419Y-73391428D01*
X124737419Y-73391428D02*
X124737419Y-73200952D01*
X124737419Y-73200952D02*
X124689800Y-73105714D01*
X124689800Y-73105714D02*
X124642180Y-73058095D01*
X124642180Y-73058095D02*
X124546942Y-73010476D01*
X124546942Y-73010476D02*
X123737419Y-73010476D01*
X124737419Y-72010476D02*
X124737419Y-72581904D01*
X124737419Y-72296190D02*
X123737419Y-72296190D01*
X123737419Y-72296190D02*
X123880276Y-72391428D01*
X123880276Y-72391428D02*
X123975514Y-72486666D01*
X123975514Y-72486666D02*
X124023133Y-72581904D01*
D11*
X75654819Y-87963333D02*
X76369104Y-87963333D01*
X76369104Y-87963333D02*
X76511961Y-88010952D01*
X76511961Y-88010952D02*
X76607200Y-88106190D01*
X76607200Y-88106190D02*
X76654819Y-88249047D01*
X76654819Y-88249047D02*
X76654819Y-88344285D01*
X76654819Y-86963333D02*
X76654819Y-87534761D01*
X76654819Y-87249047D02*
X75654819Y-87249047D01*
X75654819Y-87249047D02*
X75797676Y-87344285D01*
X75797676Y-87344285D02*
X75892914Y-87439523D01*
X75892914Y-87439523D02*
X75940533Y-87534761D01*
D10*
X101372580Y-85598095D02*
X100563057Y-85598095D01*
X100563057Y-85598095D02*
X100467819Y-85645714D01*
X100467819Y-85645714D02*
X100420200Y-85693333D01*
X100420200Y-85693333D02*
X100372580Y-85788571D01*
X100372580Y-85788571D02*
X100372580Y-85979047D01*
X100372580Y-85979047D02*
X100420200Y-86074285D01*
X100420200Y-86074285D02*
X100467819Y-86121904D01*
X100467819Y-86121904D02*
X100563057Y-86169523D01*
X100563057Y-86169523D02*
X101372580Y-86169523D01*
X101277342Y-86598095D02*
X101324961Y-86645714D01*
X101324961Y-86645714D02*
X101372580Y-86740952D01*
X101372580Y-86740952D02*
X101372580Y-86979047D01*
X101372580Y-86979047D02*
X101324961Y-87074285D01*
X101324961Y-87074285D02*
X101277342Y-87121904D01*
X101277342Y-87121904D02*
X101182104Y-87169523D01*
X101182104Y-87169523D02*
X101086866Y-87169523D01*
X101086866Y-87169523D02*
X100944009Y-87121904D01*
X100944009Y-87121904D02*
X100372580Y-86550476D01*
X100372580Y-86550476D02*
X100372580Y-87169523D01*
%TO.C,U1*%
X127250000Y-73670000D02*
X130140000Y-70600000D01*
X127040000Y-70360000D02*
X157440000Y-70360000D01*
X157440000Y-100760000D01*
X127040000Y-100760000D01*
X127040000Y-70360000D01*
X131840000Y-85560000D02*
G75*
G02*
X130640000Y-85560000I-600000J0D01*
G01*
X130640000Y-85560000D02*
G75*
G02*
X131840000Y-85560000I600000J0D01*
G01*
D12*
%TO.C,J1*%
X71501000Y-73533000D02*
X71501000Y-101727000D01*
X71501000Y-101727000D02*
X80899000Y-101727000D01*
X71628000Y-101346000D02*
X80772000Y-101346000D01*
X71628000Y-101600000D02*
X71628000Y-101346000D01*
X80772000Y-101600000D02*
X80772000Y-101346000D01*
X80899000Y-73533000D02*
X71501000Y-73533000D01*
X80899000Y-101727000D02*
X80899000Y-73533000D01*
D10*
%TO.C,U2*%
X112355000Y-70565000D02*
X116120000Y-75280000D01*
X116160000Y-70530000D02*
X84500000Y-70530000D01*
X84500000Y-102190000D01*
X116160000Y-102190000D01*
X116160000Y-70530000D01*
X116022217Y-86360000D02*
G75*
G02*
X115117783Y-86360000I-452217J0D01*
G01*
X115117783Y-86360000D02*
G75*
G02*
X116022217Y-86360000I452217J0D01*
G01*
%TD*%
M02*
