%TF.GenerationSoftware,KiCad,Pcbnew,8.0.2-1*%
%TF.CreationDate,2024-05-11T10:02:21-04:00*%
%TF.ProjectId,Rom 01 IIgs RGBToHDMI,526f6d20-3031-4204-9949-677320524742,rev?*%
%TF.SameCoordinates,Original*%
%TF.FileFunction,Paste,Top*%
%TF.FilePolarity,Positive*%
%FSLAX46Y46*%
G04 Gerber Fmt 4.6, Leading zero omitted, Abs format (unit mm)*
G04 Created by KiCad (PCBNEW 8.0.2-1) date 2024-05-11 10:02:21*
%MOMM*%
%LPD*%
G01*
G04 APERTURE LIST*
%ADD10R,3.150000X0.800000*%
%ADD11R,0.800000X3.150000*%
%ADD12R,3.100000X0.800000*%
G04 APERTURE END LIST*
D10*
%TO.C,U1*%
X128690000Y-85560000D03*
X128690000Y-84290000D03*
X128690000Y-83020000D03*
X128690000Y-81750000D03*
X128690000Y-80480000D03*
X128690000Y-79180000D03*
X128690000Y-77910000D03*
X128690000Y-76640000D03*
X128690000Y-75370000D03*
D11*
X132050000Y-72010000D03*
X133320000Y-72010000D03*
X134590000Y-72010000D03*
X135860000Y-72010000D03*
X137160000Y-72010000D03*
X138430000Y-72010000D03*
X139700000Y-72010000D03*
X140970000Y-72010000D03*
X142240000Y-72010000D03*
X143510000Y-72010000D03*
X144780000Y-72010000D03*
X146050000Y-72010000D03*
X147350000Y-72010000D03*
X148620000Y-72010000D03*
X149890000Y-72010000D03*
X151160000Y-72010000D03*
X152430000Y-72010000D03*
D10*
X155790000Y-75370000D03*
X155790000Y-76640000D03*
X155790000Y-77910000D03*
X155790000Y-79180000D03*
X155790000Y-80480000D03*
D12*
X155790000Y-81745000D03*
D10*
X155790000Y-83020000D03*
X155790000Y-84290000D03*
X155790000Y-85560000D03*
X155790000Y-86830000D03*
X155790000Y-88100000D03*
X155790000Y-89370000D03*
X155790000Y-90670000D03*
X155790000Y-91940000D03*
X155790000Y-93210000D03*
X155790000Y-94480000D03*
X155790000Y-95750000D03*
D11*
X152430000Y-99110000D03*
X151160000Y-99110000D03*
X149890000Y-99110000D03*
X148620000Y-99110000D03*
X147350000Y-99110000D03*
X146050000Y-99110000D03*
X144780000Y-99110000D03*
X143510000Y-99110000D03*
X142240000Y-99110000D03*
X140970000Y-99110000D03*
X139700000Y-99110000D03*
X138430000Y-99110000D03*
X137160000Y-99110000D03*
X135860000Y-99110000D03*
X134590000Y-99110000D03*
X133320000Y-99110000D03*
X132050000Y-99110000D03*
D10*
X128690000Y-95750000D03*
X128690000Y-94480000D03*
X128690000Y-93210000D03*
X128690000Y-91940000D03*
X128690000Y-90670000D03*
X128690000Y-89370000D03*
X128690000Y-88100000D03*
X128690000Y-86830000D03*
%TD*%
M02*
