M48
; DRILL file {KiCad 8.0.2-1} date 2024-05-11T10:01:56-0400
; FORMAT={-:-/ absolute / inch / decimal}
; #@! TF.CreationDate,2024-05-11T10:01:56-04:00
; #@! TF.GenerationSoftware,Kicad,Pcbnew,8.0.2-1
; #@! TF.FileFunction,Plated,1,2,PTH
FMAT,2
INCH
; #@! TA.AperFunction,Plated,PTH,ViaDrill
T1C0.0118
; #@! TA.AperFunction,Plated,PTH,ComponentDrill
T2C0.0300
; #@! TA.AperFunction,Plated,PTH,ComponentDrill
T3C0.0380
%
G90
G05
T1
X3.1787Y-3.5339
X3.2497Y-3.5579
X3.655Y-3.5105
X3.7978Y-3.5065
X4.512Y-3.564
X4.542Y-3.3748
X4.5466Y-3.3243
X4.565Y-3.026
X4.5945Y-3.2973
X4.6791Y-3.1856
X4.7587Y-2.8878
X4.7608Y-2.8083
X4.7894Y-3.0887
X4.8981Y-2.9673
X4.9838Y-3.0272
X4.9846Y-3.1254
X5.1488Y-3.5104
X5.1499Y-3.6632
X5.1539Y-3.7246
X5.1563Y-3.6199
X5.1632Y-3.5479
X5.2317Y-2.9335
X5.3446Y-2.9342
X5.3823Y-2.9174
X5.3918Y-3.0985
X5.3962Y-3.0188
X5.3998Y-2.9687
X5.4239Y-2.9169
X5.4607Y-2.9196
X5.489Y-3.1977
X5.6251Y-2.7532
X5.6307Y-3.3582
X5.6875Y-3.8198
X5.7006Y-3.3093
X5.7371Y-4.0093
X5.7758Y-2.7545
X5.88Y-2.7529
X5.943Y-3.984
X5.956Y-2.7372
X6.0672Y-2.9303
X6.1129Y-2.9307
T2
X3.45Y-3.0
X3.45Y-3.1
X3.45Y-3.2
X3.45Y-3.3
X3.45Y-3.4
X3.45Y-3.5
X3.45Y-3.6
X3.45Y-3.7
X3.45Y-3.8
X3.55Y-2.9
X3.55Y-3.0
X3.55Y-3.1
X3.55Y-3.2
X3.55Y-3.3
X3.55Y-3.4
X3.55Y-3.5
X3.55Y-3.6
X3.55Y-3.7
X3.55Y-3.8
X3.55Y-3.9
X3.65Y-2.9
X3.65Y-3.0
X3.65Y-3.8
X3.65Y-3.9
X3.75Y-2.9
X3.75Y-3.0
X3.75Y-3.8
X3.75Y-3.9
X3.85Y-2.9
X3.85Y-3.0
X3.85Y-3.8
X3.85Y-3.9
X3.95Y-2.9
X3.95Y-3.0
X3.95Y-3.8
X3.95Y-3.9
X4.05Y-2.9
X4.05Y-3.0
X4.05Y-3.8
X4.05Y-3.9
X4.15Y-2.9
X4.15Y-3.0
X4.15Y-3.8
X4.15Y-3.9
X4.25Y-2.9
X4.25Y-3.0
X4.25Y-3.8
X4.25Y-3.9
X4.35Y-2.9
X4.35Y-3.0
X4.35Y-3.1
X4.35Y-3.2
X4.35Y-3.3
X4.35Y-3.4
X4.35Y-3.5
X4.35Y-3.6
X4.35Y-3.7
X4.35Y-3.8
X4.35Y-3.9
X4.45Y-3.0
X4.45Y-3.1
X4.45Y-3.2
X4.45Y-3.3
X4.45Y-3.4
X4.45Y-3.5
X4.45Y-3.6
X4.45Y-3.7
X4.45Y-3.8
T3
X2.95Y-3.1
X2.95Y-3.2
X2.95Y-3.3
X2.95Y-3.4
X2.95Y-3.5
X2.95Y-3.6
X2.95Y-3.7
X2.95Y-3.8
X3.05Y-3.1
X3.05Y-3.2
X3.05Y-3.3
X3.05Y-3.4
X3.05Y-3.5
X3.05Y-3.6
X3.05Y-3.7
X3.05Y-3.8
M30
